<svg fill="#2e918c" stroke='#2e918c' stroke-width='3' version="1.1" id="Capa_1" xmlns="http://www.w3.org/2000/svg" xmlns:xlink="http://www.w3.org/1999/xlink" width="256px" height="256px" viewBox="-133.25 -133.25 647.22 647.22" xml:space="preserve" transform="rotate(45)matrix(-1, 0, 0, 1, 0, 0)">
	<!-- Fork -->
	<g id="fork" transform="translate(50, 50)">
		<path d="M380.711,57.465l-8.808-8.842l-89.742,95l-10.585-10.625l92.357-92.357l-7.75-7.715l-92.938,92.932l-8.772-8.778 l92.926-92.944l-8.539-8.528l-92.938,92.932l-10.411-10.41l95.936-89.987l-8.052-8.052l-88.418,68.853c0,0-3.207,2.713-4.311,3.828 c-12.13,12.124-17.347,28.594-15.615,44.424c-3.719,61.666-56.862,75.254-64.774,83.166 c-8.749,8.796-143.77,143.805-143.77,143.805l0.023,0.022c-0.104,0.117-0.221,0.141-0.337,0.256 c-8.272,8.273-8.25,21.704,0.012,29.965c8.249,8.272,21.715,8.272,29.953,0.023c0.116-0.128,0.174-0.244,0.255-0.337l0.023,0.022 c0,0,133.359-133.312,143.537-143.502c9.179-9.213,30.812-64.303,87.257-64.878c0.058-0.023,0.209-0.046,0.29-0.046 c13.28,0.372,26.677-4.032,37.354-13.361c0.755-0.663,2.486-2.452,2.486-2.452L380.711,57.465z">
		</path>
	</g>
	<!-- Knife -->
	<g id="knife" transform="translate(-50, -50)">
		<path d="M363.179,0l4.984,4.926c0,0,18.16,64.972-155.33,238.462c-40.607-23.098-61.997,25.096-63.995,31.951 c-8.842,8.83-100.246,98.887-100.246,98.887l-0.064-0.128c-0.058,0.128-0.116,0.244-0.238,0.349 c-8.301,8.365-21.808,8.365-30.051,0c-8.302-8.25-8.302-21.797,0-30.034c0.058-0.128,0.18-0.244,0.284-0.244v-0.116 c88.808-88.812,88.755-88.859,112.388-112.329C140.165,222.405,363.179,0,363.179,0z">
		</path>
	</g>
</svg>