<svg version="1.0" xmlns="http://www.w3.org/2000/svg" width="300.000000pt" height="122.000000pt" viewBox="0 0 300.000000 122.000000" preserveAspectRatio="xMidYMid meet">
	<g transform="translate(0.000000,122.000000) scale(0.100000,-0.100000)" fill="#eee" stroke="#2e918c" stroke-width="20">
		<path d="M1135 1052 c-17 -43 -24 -182 -14 -267 26 -233 92 -355 246 -456 132 -86 270 -119 498 -119 210 0 329 32 431 116 l45 37 42 -41 c24 -23 50 -42 58 -42 8 0 26 18 38 41 l23 40 44 -45 c67 -67 151 -79 239 -34 61 32 97 97 98 177 1 141 -111 228 -246 190 -55 -15 -103 -62 -155 -152 l-46 -79 -28 31 c-18 20 -28 43 -28 64 0 17 -9 50 -19 72 -51 113 -217 175 -467 175 l-127 0 59 38 c32 21 82 59 109 84 l50 46 -25 27 c-48 51 -51 51 -137 -33 -84 -81 -193 -152 -305 -198 -44 -18 -65 -31 -60 -39 36 -58 69 -94 82 -88 222 92 581 76 695 -32 84 -79 17 -169 -161 -216 -113 -30 -317 -30 -429 0 -91 24 -193 70 -243 108 -47 36 -105 129 -128 205 -21 74 -26 288 -6 352 6 22 10 41 9 42 -1 0 -32 4 -69 7 -57 5 -67 4 -73 -11z m1623 -548 c12 -14 22 -34 22 -45 0 -34 -28 -76 -59 -89 -40 -16 -76 -6 -113 30 -27 28 -28 31 -14 57 15 30 52 67 76 76 26 10 64 -3 88 -29z" />
		<path d="M897 872 c-34 -38 -14 -87 40 -98 26 -5 37 -1 57 19 31 31 33 50 6 77 -26 26 -81 26 -103 2z" />
		<path d="M627 719 c-44 -23 -77 -72 -77 -114 0 -18 14 -51 35 -82 19 -29 35 -64 35 -78 0 -61 -134 -88 -215 -42 -74 42 -112 128 -100 231 l6 58 -48 -7 c-26 -4 -51 -12 -55 -18 -14 -23 -19 -120 -8 -174 30 -148 133 -226 300 -226 115 0 190 35 225 104 30 57 13 141 -39 188 -41 39 -32 72 24 86 44 11 57 -16 63 -135 7 -161 43 -220 134 -220 82 0 141 51 169 148 13 44 15 79 10 161 -3 57 -7 106 -9 107 -5 5 -122 22 -126 19 -1 -2 2 -35 9 -73 7 -37 11 -99 8 -135 -3 -57 -8 -72 -31 -95 -22 -22 -31 -25 -45 -16 -14 9 -18 32 -24 116 -7 122 -24 170 -70 198 -43 26 -120 26 -171 -1z" />
		<path d="M237 232 c-53 -58 25 -132 91 -86 26 18 30 65 6 88 -21 22 -77 20 -97 -2z" />
		<path d="M420 200 c-41 -41 -13 -100 46 -100 63 0 91 54 50 95 -30 30 -69 32 -96 5z" />
	</g>
</svg>
