<svg version="1.0" xmlns="http://www.w3.org/2000/svg" width="176.000000pt" height="37.000000pt" viewBox="0 0 176.000000 37.000000" preserveAspectRatio="xMidYMid meet">
	<g transform="translate(0.000000,37.000000) scale(0.100000,-0.100000)" fill="#2e918c" stroke="none">
		<path d="M60 328 c-27 -32 -35 -50 -37 -87 -3 -64 12 -94 77 -163 50 -52 58 -57 70 -43 11 13 2 26 -64 88 -42 40 -76 78 -76 85 0 27 28 8 97 -64 64 -66 93 -83 93 -54 0 15 -152 155 -165 152 -27 -5 -24 17 6 50 17 18 34 42 39 53 7 18 9 18 21 -10 l13 -30 4 28 c5 41 28 27 24 -15 -2 -23 3 -40 13 -48 14 -12 16 -8 13 41 l-3 54 -45 2 c-41 2 -48 -1 -80 -39z" />
		<path d="M208 358 c7 -7 9 -31 5 -68 -4 -38 -2 -60 6 -64 8 -5 11 12 11 57 0 66 4 79 23 71 8 -3 10 -28 7 -80 -3 -42 -1 -83 5 -92 7 -13 11 8 15 77 5 94 12 109 40 91 12 -7 12 -12 2 -22 -6 -6 -12 -23 -12 -38 0 -24 1 -24 35 14 40 46 42 50 16 41 -12 -3 -21 0 -25 10 -4 11 -21 15 -73 15 -51 0 -64 -3 -55 -12z" />
		<path d="M450 360 c0 -5 -7 -10 -15 -10 -8 0 -15 -7 -15 -15 0 -8 -3 -15 -7 -15 -5 0 -29 -19 -54 -43 -31 -28 -48 -54 -53 -77 -6 -34 -5 -34 74 45 44 44 80 85 80 92 0 7 7 13 15 13 8 0 15 -9 15 -20 0 -11 5 -20 11 -20 6 0 8 9 4 20 -5 14 -2 20 10 20 12 0 15 -9 13 -35 -1 -19 3 -40 10 -47 9 -9 12 -2 12 35 0 33 5 49 18 56 13 8 0 10 -50 11 -39 0 -68 -4 -68 -10z" />
		<path d="M608 360 c22 -9 22 -13 16 -79 -6 -73 0 -111 18 -111 8 0 9 26 5 84 -7 88 2 115 33 96 12 -7 12 -12 2 -22 -6 -6 -12 -23 -12 -37 0 -24 3 -22 50 24 52 51 57 68 15 45 -20 -10 -28 -11 -37 -2 -7 7 -35 12 -62 11 -41 0 -47 -2 -28 -9z" />
		<path d="M810 355 c-7 -8 -16 -12 -21 -9 -5 3 -9 1 -9 -5 0 -5 -25 -33 -55 -62 -43 -41 -55 -58 -55 -83 0 -29 2 -28 75 49 41 44 74 85 75 91 0 7 8 14 18 16 13 4 18 0 18 -15 -1 -11 5 -22 12 -24 7 -3 12 4 12 16 0 12 5 21 10 21 6 0 10 -18 10 -39 0 -22 5 -43 10 -46 11 -7 13 27 4 74 -6 29 -9 31 -49 31 -25 0 -48 -6 -55 -15z" />
		<path d="M928 357 c6 -7 12 -39 14 -72 2 -33 8 -60 15 -62 7 -3 10 3 8 14 -2 10 -6 39 -9 66 -5 42 -4 47 15 47 19 0 20 -5 18 -78 -3 -73 3 -102 19 -102 4 0 6 40 4 90 -3 85 -2 90 17 90 12 0 21 5 21 10 0 6 -29 10 -66 10 -53 0 -64 -3 -56 -13z" />
		<path d="M1100 355 c-7 -8 -20 -15 -30 -15 -18 0 -45 -41 -39 -59 5 -13 14 -6 58 42 19 20 32 39 29 42 -3 3 -11 -1 -18 -10z" />
		<path d="M1210 356 c0 -21 11 -46 20 -46 4 0 10 14 12 30 4 24 1 30 -14 30 -10 0 -18 -6 -18 -14z" />
		<path d="M1273 364 c-15 -7 -18 -90 -3 -99 6 -4 10 13 10 44 0 28 5 51 10 51 6 0 10 -8 11 -17 0 -10 1 -40 2 -67 1 -31 7 -51 15 -54 11 -3 13 12 10 69 -3 65 -5 74 -23 76 -11 1 -26 -1 -32 -3z" />
		<path d="M1351 285 c-1 -45 1 -89 5 -98 14 -38 20 -12 16 73 -4 87 -4 90 18 90 20 0 21 -3 15 -42 l-7 -43 50 50 c28 28 46 52 40 54 -5 1 -18 -5 -29 -15 -18 -16 -20 -16 -37 -1 -10 10 -30 16 -44 15 -25 -2 -25 -4 -27 -83z" />
		<path d="M1544 355 c-4 -8 -9 -13 -13 -10 -13 8 -130 -119 -137 -149 -5 -22 -4 -27 6 -21 23 14 145 147 148 161 5 22 29 16 37 -8 l8 -23 4 23 c7 33 35 29 33 -5 -3 -42 -1 -53 9 -53 6 0 9 18 8 40 -1 21 3 39 8 40 6 0 11 -26 13 -57 5 -87 22 -91 22 -6 0 60 3 72 18 76 9 3 -23 5 -71 6 -69 1 -89 -2 -93 -14z" />
		<path d="M1161 343 c-6 -10 -11 -15 -11 -11 0 3 -27 -21 -60 -54 -42 -43 -60 -69 -60 -87 0 -23 8 -18 80 54 44 44 80 85 80 92 0 20 -18 24 -29 6z" />
		<path d="M576 307 c-8 -49 -1 -87 15 -87 10 0 10 59 0 105 -7 28 -7 28 -15 -18z" />
		<path d="M1718 267 c-4 -42 -1 -70 8 -87 13 -23 14 -17 12 58 -1 46 -5 85 -9 88 -4 2 -9 -24 -11 -59z" />
		<path d="M94 286 c-3 -9 25 -46 73 -96 68 -70 81 -79 92 -66 11 13 0 28 -68 96 -44 44 -83 80 -86 80 -3 0 -8 -6 -11 -14z" />
		<path d="M454 289 c-4 -6 29 -47 77 -95 65 -65 86 -81 96 -72 11 9 -3 28 -69 94 -45 46 -86 84 -90 84 -4 0 -10 -5 -14 -11z" />
		<path d="M820 286 c0 -8 42 -57 93 -109 86 -87 127 -113 127 -80 0 7 -11 13 -25 13 -16 0 -23 4 -19 14 5 13 -148 176 -166 176 -6 0 -10 -6 -10 -14z" />
		<path d="M1193 293 c-7 -3 -13 -8 -13 -12 0 -4 36 -44 81 -89 75 -75 99 -90 99 -59 0 19 -153 165 -167 160z" />
		<path d="M1552 287 c-9 -10 7 -31 67 -90 43 -42 84 -77 90 -77 20 0 12 -47 -9 -53 -28 -7 -25 -21 8 -42 15 -10 24 -14 20 -10 -4 4 0 24 8 45 21 52 10 70 -122 193 -41 37 -54 45 -62 34z" />
		<path d="M778 243 c-9 -11 4 -29 68 -94 43 -43 82 -79 87 -79 4 0 10 6 13 14 3 8 -26 45 -75 94 -67 65 -83 77 -93 65z" />
		<path d="M1506 244 c-10 -26 148 -184 166 -166 10 10 -5 30 -73 98 -72 72 -87 83 -93 68z" />
		<path d="M412 242 c-8 -6 12 -33 68 -90 44 -45 84 -82 89 -82 32 0 15 31 -55 101 -83 84 -82 83 -102 71z" />
		<path d="M1145 239 c-6 -8 124 -156 145 -166 3 -2 11 1 19 6 11 7 -3 27 -64 90 -44 45 -83 81 -87 81 -4 0 -10 -5 -13 -11z" />
		<path d="M364 197 c-2 -7 32 -50 77 -95 74 -73 99 -89 99 -62 0 10 -156 170 -166 170 -2 0 -7 -6 -10 -13z" />
		<path d="M733 194 c-4 -11 18 -40 73 -95 64 -63 81 -76 92 -66 10 11 -4 29 -70 95 -45 45 -83 82 -85 82 -2 0 -6 -7 -10 -16z" />
		<path d="M1103 203 c-7 -3 -13 -8 -13 -12 0 -4 36 -43 79 -87 72 -72 101 -90 101 -63 0 17 -155 167 -167 162z" />
		<path d="M1462 197 c-9 -10 6 -30 72 -96 67 -66 85 -80 94 -68 9 10 -6 30 -72 96 -67 66 -85 80 -94 68z" />
		<path d="M324 155 c-18 -13 -15 -17 54 -84 53 -53 79 -71 99 -71 26 0 22 6 -52 82 -44 45 -80 84 -81 85 0 2 -9 -4 -20 -12z" />
		<path d="M691 162 c-6 -2 -11 -9 -11 -17 0 -20 138 -145 160 -145 11 0 20 1 20 3 0 11 -161 162 -169 159z" />
		<path d="M1050 156 c-11 -14 -2 -26 61 -86 50 -47 82 -70 99 -70 23 0 22 2 -18 40 -23 23 -62 61 -85 86 -38 40 -45 43 -57 30z" />
		<path d="M1410 147 c0 -24 136 -147 161 -147 20 0 11 12 -56 80 -77 77 -105 95 -105 67z" />
		<path d="M20 106 c0 -6 7 -22 16 -34 8 -12 12 -22 9 -22 -3 0 6 -11 21 -25 22 -21 64 -35 64 -22 0 2 -25 29 -55 59 -30 30 -55 50 -55 44z" />
		<path d="M270 96 c0 -17 42 -16 48 2 2 7 -6 12 -22 12 -15 0 -26 -6 -26 -14z" />
		<path d="M630 94 c0 -17 22 -14 28 4 2 7 -3 12 -12 12 -9 0 -16 -7 -16 -16z" />
		<path d="M1360 95 c0 -9 9 -15 25 -15 16 0 25 6 25 15 0 9 -9 15 -25 15 -16 0 -25 -6 -25 -15z" />
		<path d="M230 65 c-10 -12 -7 -19 17 -39 23 -20 29 -22 31 -9 4 17 -17 63 -28 63 -4 0 -13 -7 -20 -15z" />
		<path d="M596 63 c-4 -11 2 -26 18 -42 22 -22 26 -23 32 -8 6 18 -19 67 -35 67 -5 0 -12 -8 -15 -17z" />
		<path d="M682 68 c-7 -7 -12 -25 -12 -42 l0 -30 29 28 c25 24 28 31 16 42 -17 17 -18 17 -33 2z" />
		<path d="M962 63 c-7 -14 -3 -23 19 -41 l29 -24 0 25 c0 13 -9 32 -19 41 -18 17 -20 17 -29 -1z" />
		<path d="M1045 57 c-9 -14 -15 -34 -13 -43 3 -15 7 -14 33 9 28 24 29 27 13 43 -15 15 -17 15 -33 -9z" />
		<path d="M1412 60 c-14 -23 -16 -50 -4 -50 5 0 17 9 27 20 16 18 17 22 4 35 -13 13 -16 12 -27 -5z" />
		<path d="M315 55 c-3 -8 -7 -22 -10 -30 -2 -8 2 -15 9 -15 18 0 49 37 41 49 -9 16 -35 13 -40 -4z" />
		<path d="M1325 60 c-4 -7 4 -24 19 -39 l27 -26 -3 35 c-3 36 -29 53 -43 30z" />
		<path d="M16 15 c-3 -9 0 -15 9 -15 16 0 20 16 6 24 -5 3 -11 -1 -15 -9z" />
		<path d="M187 23 c-14 -13 -6 -23 19 -23 22 0 25 2 14 15 -14 16 -23 19 -33 8z" />
		<path d="M360 14 c-10 -12 -8 -14 14 -14 28 0 35 14 12 23 -8 3 -20 -1 -26 -9z" />
		<path d="M550 15 c-11 -13 -8 -15 13 -15 19 0 25 4 21 15 -8 19 -18 19 -34 0z" />
		<path d="M730 15 c-11 -13 -9 -15 15 -15 16 0 25 5 23 12 -7 19 -24 20 -38 3z" />
		<path d="M917 23 c-14 -13 -6 -23 19 -23 22 0 25 2 14 15 -14 16 -23 19 -33 8z" />
		<path d="M1097 24 c-13 -13 -7 -24 14 -24 11 0 19 5 17 12 -5 14 -22 21 -31 12z" />
		<path d="M1283 23 c-22 -8 -14 -23 12 -23 18 0 23 4 19 15 -6 16 -11 17 -31 8z" />
		<path d="M1456 15 c-4 -11 2 -15 21 -15 21 0 24 2 13 15 -16 19 -26 19 -34 0z" />
		<path d="M1647 23 c-14 -13 -6 -23 19 -23 22 0 25 2 14 15 -14 16 -23 19 -33 8z" />
	</g>
</svg>
